PathFileType	3	(X/Y/Z)	D:\minhoCalibration\240510\subject1_KPNP\preferred\preferred05.trc
DataRate	CameraRate	NumFrames	NumMarkers	Units	OrigDataRate	OrigDataStartFrame	OrigNumFrames
200.0	200.0	18	10	mm	200.0	415	162	
Frame#	Time	Left_Ankle_Outer1			Left_Ankle_Inner1			Left_Knee_Outer1			Left_Knee_Inner1			Left_Wrist1			Right_Wrist1			Right_Knee_Inner1			Right_Knee_Outer1			Right_Ankle_Inner1			Right_Ankle_Outer1			
		X1	Y1	Z1	X2	Y2	Z2	X3	Y3	Z3	X4	Y4	Z4	X5	Y5	Z5	X6	Y6	Z6	X7	Y7	Z7	X8	Y8	Z8	X9	Y9	Z9	X10	Y10	Z10	
415	2.065	-519.92029	155.83597	-539.15723	-544.01031	170.31885	-487.22208	-341.30261	572.6571	-532.89813	-408.54031	560.99774	-449.00275	-439.61301	1015.3824	-751.94067	-566.83801	1185.8901	-447.88647	-296.69745	960.27264	-136.78435	-338.76892	1065.2532	-116.84483	-733.57642	884.6875	-49.371132	-768.00604	973.34039	-26.556646
416	2.07	-523.59174	155.1525	-537.07782	-547.63287	169.6098	-485.31158	-343.25845	571.86847	-529.65991	-411.90125	560.70587	-445.12979	-445.14636	1011.9274	-750.80396	-563.25452	1189.3679	-448.22348	-286.32864	970.45245	-139.4687	-324.1741	1075.583	-124.96407	-710.93115	899.06079	4.328835	-743.54443	989.2417	23.046761
417	2.075	-526.74017	154.68849	-535.21997	-550.86731	168.51532	-483.34863	-345.67807	570.90051	-525.61615	-415.6767	559.66827	-441.8855	-450.36191	1008.3721	-748.94128	-560.56958	1192.1616	-448.65277	-275.54535	980.10492	-143.26367	-313.25839	1084.4072	-132.70407	-682.29297	914.94989	56.707104	-714.14056	1005.3983	72.315338
418	2.08	-529.62634	153.98453	-533.29608	-553.87799	167.76361	-481.75278	-348.14508	569.63708	-521.10913	-418.55951	558.92889	-439.38263	-453.96503	1005.8959	-747.39801	-558.1355	1193.9368	-451.12195	-268.8692	988.25372	-146.36008	-305.49228	1092.0521	-139.77859	-649.27429	929.37585	107.75996	-680.06451	1022.1224	120.62357
419	2.085	-532.22333	153.20708	-531.5528	-556.42035	166.52887	-480.10861	-349.42929	568.94965	-517.27289	-422.33258	558.42346	-435.2229	-456.88501	1003.7478	-744.72974	-556.8714	1195.5337	-452.44736	-265.4588	995.23523	-148.95508	-301.15988	1098.3765	-145.44121	-612.04523	950.09668	155.73112	-640.58582	1039.3856	167.49216
420	2.09	-534.36432	152.56024	-530.22894	-558.75409	165.56793	-478.79333	-351.06546	568.11127	-512.88275	-424.9855	558.15405	-432.16052	-458.69397	1001.5601	-742.45496	-556.4519	1196.6262	-453.77017	-264.33337	1001.1938	-150.80563	-299.67218	1103.551	-149.52483	-567.66125	969.30048	199.96951	-596.21729	1057.1042	211.05243
421	2.095	-536.08295	151.85283	-529.17914	-560.33929	164.9637	-477.61972	-352.66672	566.95819	-508.66718	-427.9978	557.3299	-429.05371	-459.33386	999.89301	-739.81104	-557.10852	1197.5288	-454.71579	-266.01263	1006.3904	-151.64455	-300.87854	1107.4537	-151.54568	-518.09509	984.88605	239.19984	-547.05688	1075.0568	250.46501
422	2.1	-537.47809	151.12312	-528.49591	-562.20508	163.6902	-477.29852	-354.02969	566.17621	-504.35956	-430.86761	556.23969	-426.11279	-459.32651	998.23792	-737.16028	-558.73975	1198.2333	-454.0994	-270.1235	1010.4589	-151.04405	-304.41061	1109.777	-151.0858	-465.96771	1001.1086	272.24841	-493.2059	1092.5848	284.16464
423	2.105	-538.55164	150.40195	-528.14172	-563.74518	162.72249	-477.18427	-354.97601	565.36829	-500.68854	-432.45187	555.42731	-423.9046	-458.59973	997.09308	-733.99072	-560.97589	1198.5804	-454.67618	-276.28024	1012.9556	-148.57396	-309.89767	1110.5382	-148.63753	-409.50803	1017.8779	298.16965	-436.31403	1108.8962	310.44519
424	2.11	-539.4494	149.58434	-527.89569	-565.03711	161.99962	-477.32538	-355.1178	564.87585	-497.80402	-434.07135	554.44867	-421.30853	-456.94992	996.48639	-731.49786	-563.82184	1198.4418	-453.10178	-283.70599	1014.2598	-144.49939	-317.77597	1111.0959	-144.83125	-353.88327	1032.8995	313.36584	-376.48792	1123.1444	326.81772
425	2.115	-539.97095	148.6777	-528.07538	-566.0188	161.05193	-477.69998	-356.15921	563.82043	-494.18808	-435.77356	553.23163	-418.27252	-455.28625	996.02655	-727.92181	-566.52875	1198.4089	-451.93628	-292.3172	1014.9553	-139.2652	-327.42615	1111.739	-139.90944	-317.55994	1043.0807	316.07318	-324.24634	1136.0531	333.95813
426	2.12	-540.43018	147.86681	-528.29651	-566.80591	160.11853	-478.12482	-355.92834	563.06622	-491.7923	-436.07892	552.508	-415.82144	-453.17758	995.96033	-723.81506	-569.30194	1197.7253	-449.25278	-300.13873	1013.9277	-133.90408	-336.35876	1114.2557	-133.21347	-310.81989	1053.5453	317.30704	-306.28442	1148.9794	326.49548
427	2.125	-540.77472	146.97581	-528.6972	-567.44788	158.94736	-478.47604	-355.79221	562.18036	-488.88297	-437.0556	550.95569	-412.70242	-450.91599	996.02679	-718.64728	-571.67072	1196.7538	-447.09958	-304.63141	1010.4478	-129.88838	-342.68365	1119.9456	-126.92225	-317.91254	1063.2926	324.13947	-299.14355	1156.1453	320.86578
428	2.13	-540.60303	146.30486	-529.22925	-567.8244	158.31805	-479.25006	-355.48077	561.19153	-485.83383	-437.01248	549.30859	-410.12259	-448.33145	996.19269	-713.2619	-574.27966	1196.6348	-442.87524	-302.79843	1007.3906	-125.46812	-342.77921	1125.0785	-122.30121	-322.7774	1068.1674	327.09988	-299.98962	1161.8503	322.81488
429	2.135	-539.95837	145.85797	-529.81213	-567.70972	157.70741	-480.25781	-355.11215	560.25293	-482.54892	-436.51678	547.65112	-406.93008	-445.66855	996.24213	-707.45874	-576.534	1197.0881	-438.2511	-298.89706	1009.2149	-119.56089	-335.63693	1126.2872	-119.68417	-323.12985	1063.5609	328.06186	-310.38077	1161.8608	329.78378
430	2.14	-538.66705	145.8157	-530.31415	-566.95435	157.15544	-480.95694	-354.53314	559.52838	-478.98248	-435.84335	546.09894	-403.43799	-443.17593	996.00684	-701.49896	-578.6925	1197.7822	-435.31387	-297.16937	1014.6544	-115.2669	-326.62802	1125.0428	-118.39787	-322.12231	1056.2081	327.79416	-326.58347	1154.3242	335.57571
431	2.145	-536.92352	145.72728	-530.6402	-566.04681	156.92145	-481.81491	-354.10498	559.20728	-474.79419	-434.39191	543.73871	-402.3815	-441.00159	995.43817	-695.77277	-581.70831	1198.6019	-430.00647	-296.61002	1019.4919	-113.89571	-319.86462	1123.1923	-118.26244	-322.62354	1049.7257	325.26682	-340.11777	1144.8823	340.33481
432	2.15	-534.53369	145.95084	-531.19696	-564.82568	156.84303	-482.64432	-354.45322	559.02905	-469.59406	-433.76102	542.6015	-398.57361	-439.27176	994.56171	-690.2475	-584.60193	1198.9865	-426.7077	-297.82413	1022.3245	-112.82466	-318.88419	1124.4353	-119.18798	-328.64853	1043.1182	323.68457	-347.86215	1135.007	344.5206
